<svg width="13" height="13" viewBox="0 0 13 13" fill="none" xmlns="http://www.w3.org/2000/svg">
<path d="M10.5928 4.12C10.5728 4.01 10.4628 3.93 10.3328 3.93H9.12277V3.11C9.12277 1.94 8.01277 1 6.65277 1C5.29277 1 4.18277 1.95 4.18277 3.11V3.93H2.97277C2.84277 3.93 2.73277 4.01 2.71277 4.12L1.00277 12.42C0.982774 12.54 1.07277 12.66 1.21277 12.68C1.23277 12.68 1.24277 12.68 1.26277 12.68H12.0428C12.1928 12.68 12.3028 12.58 12.3128 12.46C12.3128 12.45 12.3128 12.43 12.3128 12.42L10.5928 4.12ZM4.70277 3.11C4.70277 2.19 5.57277 1.45 6.64277 1.45C7.71277 1.45 8.58277 2.19 8.58277 3.11V3.93H4.70277V3.11ZM1.57277 12.23L3.19277 4.38H4.18277V5.41C4.18277 5.53 4.30277 5.63 4.44277 5.63C4.58277 5.63 4.70277 5.53 4.70277 5.41V4.38H8.59277V5.41C8.59277 5.53 8.71277 5.63 8.85277 5.63C9.00277 5.63 9.11277 5.53 9.11277 5.41V4.38H10.1028L11.7228 12.23H1.57277Z" fill="#4FB9BB" stroke="#4FB9BB" stroke-width="0.5" stroke-miterlimit="10"/>
<path d="M5.18289 5.18945C5.03289 5.18945 4.92289 5.28945 4.92289 5.40945C4.92289 5.62945 4.71289 5.80945 4.45289 5.80945C4.19289 5.80945 3.98289 5.62945 3.98289 5.40945C3.98289 5.28945 3.86289 5.18945 3.72289 5.18945C3.57289 5.18945 3.46289 5.28945 3.46289 5.40945C3.46289 5.87945 3.91289 6.25945 4.46289 6.25945C5.01289 6.25945 5.46289 5.87945 5.46289 5.40945C5.44289 5.28945 5.32289 5.18945 5.18289 5.18945Z" fill="#4FB9BB" stroke="#4FB9BB" stroke-width="0.5" stroke-miterlimit="10"/>
<path d="M9.59305 5.18945C9.44305 5.18945 9.33305 5.28945 9.33305 5.40945C9.33305 5.62945 9.12305 5.80945 8.86305 5.80945C8.60305 5.80945 8.39305 5.62945 8.39305 5.40945C8.39305 5.28945 8.27305 5.18945 8.13305 5.18945C7.99305 5.18945 7.87305 5.28945 7.87305 5.40945C7.87305 5.87945 8.32305 6.25945 8.87305 6.25945C9.42305 6.25945 9.87305 5.87945 9.87305 5.40945C9.86305 5.28945 9.74305 5.18945 9.59305 5.18945Z" fill="#4FB9BB" stroke="#4FB9BB" stroke-width="0.5" stroke-miterlimit="10"/>
</svg>
