<svg width="13" height="13" viewBox="0 0 13 13" fill="none" xmlns="http://www.w3.org/2000/svg">
<path d="M10.6842 1.03291H9.65125V0H8.9605V1.03291H3.44734V0H2.75658V1.03291H1.72367C0.774683 1.03291 0 1.80759 0 2.75658V11.0263C0 11.9753 0.774683 12.75 1.72367 12.75H10.6842C11.6332 12.75 12.4078 11.9753 12.4078 11.0263V4.48025V3.78949V2.75658C12.4078 1.80759 11.6332 1.03291 10.6842 1.03291ZM11.7171 11.0263C11.7171 11.5944 11.2523 12.0592 10.6842 12.0592H1.72367C1.15557 12.0592 0.690759 11.5944 0.690759 11.0263V4.48025H11.7171V11.0263ZM11.7171 3.78949H0.690759V2.75658C0.690759 2.18848 1.15557 1.72367 1.72367 1.72367H2.75658V2.41443H3.44734V1.72367H8.9605V2.41443H9.65125V1.72367H10.6842C11.2523 1.72367 11.7171 2.18848 11.7171 2.75658V3.78949Z" fill="#4FB9BB"/>
<path d="M5.51302 7.9271H6.89454C7.27543 7.9271 7.5853 7.61722 7.5853 7.23634V5.85482C7.5853 5.47394 7.27543 5.16406 6.89454 5.16406H5.51302C5.13214 5.16406 4.82227 5.47394 4.82227 5.85482V7.23634C4.82227 7.61722 5.13214 7.9271 5.51302 7.9271ZM5.51302 5.85482H6.89454V7.23634H5.51302V5.85482Z" fill="#4FB9BB"/>
<path d="M8.96029 7.9271H10.3418C10.7227 7.9271 11.0326 7.61722 11.0326 7.23634V5.85482C11.0326 5.47394 10.7227 5.16406 10.3418 5.16406H8.96029C8.5794 5.16406 8.26953 5.47394 8.26953 5.85482V7.23634C8.26953 7.61722 8.5794 7.9271 8.96029 7.9271ZM8.96029 5.85482H10.3418V7.23634H8.96029V5.85482Z" fill="#4FB9BB"/>
<path d="M2.06576 11.3685H3.44728C3.82816 11.3685 4.13803 11.0586 4.13803 10.6777V9.29623C4.13803 8.91534 3.82816 8.60547 3.44728 8.60547H2.06576C1.68487 8.60547 1.375 8.91534 1.375 9.29623V10.6777C1.375 11.0651 1.68487 11.3685 2.06576 11.3685ZM2.06576 9.30268H3.44728V10.6842H2.06576V9.30268Z" fill="#4FB9BB"/>
<path d="M5.51302 11.3685H6.89454C7.27543 11.3685 7.5853 11.0586 7.5853 10.6777V9.29623C7.5853 8.91534 7.27543 8.60547 6.89454 8.60547H5.51302C5.13214 8.60547 4.82227 8.91534 4.82227 9.29623V10.6777C4.82227 11.0651 5.13214 11.3685 5.51302 11.3685ZM5.51302 9.30268H6.89454V10.6842H5.51302V9.30268Z" fill="#4FB9BB"/>
<path d="M8.96029 11.3685H10.3418C10.7227 11.3685 11.0326 11.0586 11.0326 10.6777V9.29623C11.0326 8.91534 10.7227 8.60547 10.3418 8.60547H8.96029C8.5794 8.60547 8.26953 8.91534 8.26953 9.29623V10.6777C8.26953 11.0651 8.5794 11.3685 8.96029 11.3685ZM8.96029 9.30268H10.3418V10.6842H8.96029V9.30268Z" fill="#4FB9BB"/>
</svg>
