<svg width="18" height="18" viewBox="0 0 18 18" fill="none" xmlns="http://www.w3.org/2000/svg">
<path fill-rule="evenodd" clip-rule="evenodd" d="M16.8334 0.749959C17.0001 0.833293 17.1667 0.999959 17.2501 1.16663C17.3334 1.24996 17.3334 1.41663 17.3334 1.49996V6.49996C17.3334 6.99996 17.0001 7.33329 16.5001 7.33329C16.0001 7.33329 15.6667 6.99996 15.6667 6.49996V3.49996L7.91675 11.25C7.75008 11.4166 7.58342 11.5 7.33342 11.5C7.08342 11.5 6.91675 11.4166 6.75008 11.25C6.41675 10.9166 6.41675 10.4166 6.75008 10.0833L14.5001 2.33329H11.5001C11.0001 2.33329 10.6667 1.99996 10.6667 1.49996C10.6667 0.999959 11.0001 0.666626 11.5001 0.666626H16.5001C16.5834 0.666626 16.7501 0.666626 16.8334 0.749959ZM14.8334 14.8333V9.83329C14.8334 9.33329 14.5001 8.99996 14.0001 8.99996C13.5001 8.99996 13.1667 9.33329 13.1667 9.83329V14.8333C13.1667 15.3333 12.8334 15.6666 12.3334 15.6666H3.16675C2.66675 15.6666 2.33341 15.3333 2.33341 14.8333V5.66663C2.33341 5.16663 2.66675 4.83329 3.16675 4.83329H8.16675C8.66675 4.83329 9.00008 4.49996 9.00008 3.99996C9.00008 3.49996 8.66675 3.16663 8.16675 3.16663H3.16675C1.75008 3.16663 0.666748 4.24996 0.666748 5.66663V14.8333C0.666748 16.25 1.75008 17.3333 3.16675 17.3333H12.3334C13.7501 17.3333 14.8334 16.25 14.8334 14.8333Z" fill="#323232"/>
</svg>
