<svg width="16" height="11" viewBox="0 0 16 11" fill="none" xmlns="http://www.w3.org/2000/svg">
<path d="M1.09103 10.999C1.69383 10.999 2.18207 10.5056 2.17934 9.89984C2.17934 9.61477 2.07024 9.3434 1.87385 9.14056L4.82237 5.24273C5.14422 5.42364 5.53427 5.42364 5.85612 5.24273L8.31094 8.24148C7.91817 8.69924 7.96727 9.39274 8.4255 9.78746C8.88374 10.1822 9.57109 10.1328 9.96386 9.67233C10.3294 9.24746 10.3157 8.61427 9.93113 8.20311L14.4507 2.14529C15.0153 2.38651 15.67 2.12336 15.91 1.55596C16.15 0.988553 15.8882 0.330691 15.3236 0.0894749C14.759 -0.151741 14.1043 0.111404 13.8643 0.67881C13.7034 1.05708 13.7634 1.49291 14.017 1.81362L9.47017 7.90433C9.24105 7.81935 8.99284 7.81935 8.76372 7.90433L6.24889 4.85075C6.56256 4.33268 6.39891 3.65838 5.8834 3.34315C5.36788 3.02793 4.6969 3.19239 4.38323 3.71046C4.16229 4.07502 4.1732 4.53553 4.4105 4.89187L1.41016 8.85823C1.30651 8.82533 1.20014 8.80889 1.09103 8.80615C0.488237 8.80615 0 9.2968 0 9.90258C0 10.5084 0.488237 10.999 1.09103 10.999Z" fill="#4FB9BB"/>
</svg>
