<svg width="52" height="52" viewBox="0 0 52 52" fill="none" xmlns="http://www.w3.org/2000/svg">
<circle opacity="0.34" cx="26" cy="26" r="22" fill="#323232"/>
<circle opacity="0.34" cx="26" cy="26" r="25.5" stroke="#323232"/>
<path d="M34 20.0015V20.25H28.6667V15H28.9191C29.1843 15 29.4387 15.1037 29.6262 15.2883L33.7071 19.3054C33.8946 19.49 34 19.7404 34 20.0015ZM28.3333 21.5625C27.7833 21.5625 27.3333 21.1195 27.3333 20.5781V15H19C18.4477 15 18 15.4407 18 15.9844V35.0156C18 35.5593 18.4477 36 19 36H33C33.5523 36 34 35.5593 34 35.0156V21.5625H28.3333ZM22.6894 22.2188C23.794 22.2188 24.6894 23.1002 24.6894 24.1875C24.6894 25.2748 23.794 26.1562 22.6894 26.1562C21.5848 26.1562 20.6894 25.2748 20.6894 24.1875C20.6894 23.1002 21.5848 22.2188 22.6894 22.2188ZM31.356 32.0625H20.6894L20.7096 30.0739L22.356 28.4531C22.5513 28.2609 22.8477 28.2808 23.0429 28.473L24.6894 30.0938L29.0025 25.848C29.1978 25.6558 29.5143 25.6558 29.7096 25.848L31.356 27.4688V32.0625Z" fill="white"/>
</svg>
