<svg width="18" height="20" viewBox="0 0 18 20" fill="none" xmlns="http://www.w3.org/2000/svg">
<path fill-rule="evenodd" clip-rule="evenodd" d="M7.342 19.1673C7.84263 19.1673 8.17638 18.834 8.17638 18.334C8.17638 17.834 7.84263 17.5007 7.342 17.5007H3.17012C2.6695 17.5007 2.33574 17.1673 2.33574 16.6673V3.33398C2.33574 2.83398 2.6695 2.50065 3.17012 2.50065H7.342C7.84263 2.50065 8.17638 2.16732 8.17638 1.66732C8.17638 1.16732 7.84263 0.833984 7.342 0.833984H3.17012C1.75168 0.833984 0.666992 1.91732 0.666992 3.33398V16.6673C0.666992 18.084 1.75168 19.1673 3.17012 19.1673H7.342ZM17.2711 9.66732C17.3545 9.91732 17.3545 10.1673 17.2711 10.334C17.2711 10.4173 17.1876 10.5007 17.1042 10.584L13.7667 13.9173C13.5998 14.084 13.3495 14.1673 13.1826 14.1673C13.0158 14.1673 12.7654 14.084 12.5986 13.9173C12.2648 13.584 12.2648 13.084 12.5986 12.7507L14.5176 10.834H6.50763C6.007 10.834 5.67325 10.5007 5.67325 10.0007C5.67325 9.50065 6.007 9.16732 6.50763 9.16732H14.5176L12.5986 7.25065C12.2648 6.91732 12.2648 6.41732 12.5986 6.08398C12.9323 5.75065 13.433 5.75065 13.7667 6.08398L17.1042 9.41732C17.1459 9.45898 17.1668 9.50065 17.1876 9.54232C17.2085 9.58398 17.2294 9.62565 17.2711 9.66732Z" fill="white"/>
</svg>
