<svg width="20" height="20" viewBox="0 0 20 20" fill="none" xmlns="http://www.w3.org/2000/svg">
<path d="M2.5 5H4.16667H17.5" stroke="#EB5757" stroke-width="1.66667" stroke-linecap="round" stroke-linejoin="round"/>
<path d="M6.66699 4.99935V3.33268C6.66699 2.89065 6.84259 2.46673 7.15515 2.15417C7.46771 1.84161 7.89163 1.66602 8.33366 1.66602H11.667C12.109 1.66602 12.5329 1.84161 12.8455 2.15417C13.1581 2.46673 13.3337 2.89065 13.3337 3.33268V4.99935M15.8337 4.99935V16.666C15.8337 17.108 15.6581 17.532 15.3455 17.8445C15.0329 18.1571 14.609 18.3327 14.167 18.3327H5.83366C5.39163 18.3327 4.96771 18.1571 4.65515 17.8445C4.34259 17.532 4.16699 17.108 4.16699 16.666V4.99935H15.8337Z" stroke="#EB5757" stroke-width="1.66667" stroke-linecap="round" stroke-linejoin="round"/>
<path d="M8.33301 9.16602V14.166" stroke="#EB5757" stroke-width="1.66667" stroke-linecap="round" stroke-linejoin="round"/>
<path d="M11.667 9.16602V14.166" stroke="#EB5757" stroke-width="1.66667" stroke-linecap="round" stroke-linejoin="round"/>
</svg>
