<svg width="12" height="12" viewBox="0 0 12 12" fill="none" xmlns="http://www.w3.org/2000/svg">
<path d="M10.5 0H1.5C0.67 0 0 0.574286 0 1.28571V10.7143C0 11.4257 0.67 12 1.5 12H10.5C11.33 12 12 11.4257 12 10.7143V1.28571C12 0.574286 11.33 0 10.5 0ZM11 10.7143C11 10.95 10.775 11.1429 10.5 11.1429H1.5C1.225 11.1429 1 10.95 1 10.7143V1.28571C1 1.05 1.225 0.857143 1.5 0.857143H10.5C10.775 0.857143 11 1.05 11 1.28571V10.7143ZM10 2.57143C10 2.80714 9.775 3 9.5 3H5C4.725 3 4.5 2.80714 4.5 2.57143C4.5 2.33571 4.725 2.14286 5 2.14286H9.5C9.775 2.14286 10 2.33571 10 2.57143ZM10 6C10 6.23571 9.775 6.42857 9.5 6.42857H5C4.725 6.42857 4.5 6.23571 4.5 6C4.5 5.76429 4.725 5.57143 5 5.57143H9.5C9.775 5.57143 10 5.76429 10 6ZM10 9.42857C10 9.66429 9.775 9.85714 9.5 9.85714H5C4.725 9.85714 4.5 9.66429 4.5 9.42857C4.5 9.19286 4.725 9 5 9H9.5C9.775 9 10 9.19286 10 9.42857ZM4 2.57143C4 2.80714 3.775 3 3.5 3H2.5C2.225 3 2 2.80714 2 2.57143C2 2.33571 2.225 2.14286 2.5 2.14286H3.5C3.775 2.14286 4 2.33571 4 2.57143ZM4 6C4 6.23571 3.775 6.42857 3.5 6.42857H2.5C2.225 6.42857 2 6.23571 2 6C2 5.76429 2.225 5.57143 2.5 5.57143H3.5C3.775 5.57143 4 5.76429 4 6ZM4 9.42857C4 9.66429 3.775 9.85714 3.5 9.85714H2.5C2.225 9.85714 2 9.66429 2 9.42857C2 9.19286 2.225 9 2.5 9H3.5C3.775 9 4 9.19286 4 9.42857Z" fill="#4FB9BB"/>
</svg>
