<svg width="16" height="11" viewBox="0 0 16 11" fill="none" xmlns="http://www.w3.org/2000/svg">
<path d="M0.120117 10.7091V8.31914C0.120117 6.62914 1.46012 5.29914 3.16012 5.29914C3.80012 5.29914 4.45012 5.46914 4.97012 5.87914C5.61012 5.00914 6.67012 4.47914 7.78012 4.47914C8.89012 4.47914 9.88012 4.99914 10.5901 5.87914C11.1201 5.46914 11.7001 5.29914 12.3401 5.29914C14.0401 5.29914 15.4401 6.63914 15.4401 8.31914V10.6991C10.3001 10.7091 5.21012 10.7091 0.120117 10.7091ZM4.22012 10.1291V7.97914C4.22012 7.39914 4.40012 6.87914 4.63012 6.34914C4.22012 6.05914 3.69012 5.87914 3.16012 5.87914C1.82012 5.87914 0.650117 6.97914 0.650117 8.31914V10.1191H4.22012V10.1291ZM10.8801 6.34914C11.1101 6.86914 11.2901 7.39914 11.2901 7.97914V10.1291H14.8601V8.32914C14.8601 6.98914 13.7501 5.88914 12.3501 5.88914C11.8201 5.87914 11.2901 6.05914 10.8801 6.34914ZM12.3401 1.51914C13.3901 1.51914 14.2101 2.38914 14.2101 3.37914C14.2101 4.42914 13.3901 5.23914 12.3401 5.23914C11.3501 5.23914 10.4701 4.42914 10.4701 3.37914C10.4701 2.38914 11.3501 1.51914 12.3401 1.51914ZM12.3401 2.09914C11.6401 2.09914 11.0501 2.67914 11.0501 3.37914C11.0501 4.13914 11.6301 4.65914 12.3401 4.65914C13.1001 4.65914 13.6301 4.13914 13.6301 3.37914C13.6301 2.67914 13.1001 2.09914 12.3401 2.09914ZM3.16012 1.51914C4.21012 1.51914 5.03012 2.38914 5.03012 3.37914C5.03012 4.42914 4.21012 5.23914 3.16012 5.23914C2.11012 5.23914 1.29012 4.42914 1.29012 3.37914C1.29012 2.38914 2.11012 1.51914 3.16012 1.51914ZM3.16012 2.09914C2.46012 2.09914 1.87012 2.67914 1.87012 3.37914C1.87012 4.13914 2.45012 4.65914 3.16012 4.65914C3.87012 4.65914 4.45012 4.13914 4.45012 3.37914C4.45012 2.67914 3.87012 2.09914 3.16012 2.09914ZM4.80012 10.1291H10.7001V7.97914C10.7001 6.34914 9.36012 5.06914 7.78012 5.06914C6.14012 5.06914 4.80012 6.34914 4.80012 7.97914V10.1291ZM7.78012 0.119141C8.36012 0.119141 8.89012 0.349141 9.24012 0.699141C9.65012 1.10914 9.88012 1.62914 9.88012 2.20914C9.88012 3.36914 8.94012 4.35914 7.78012 4.35914C6.62012 4.35914 5.62012 3.37914 5.62012 2.21914C5.62012 1.05914 6.61012 0.119141 7.78012 0.119141ZM8.89012 1.10914C8.60012 0.879141 8.19012 0.709141 7.78012 0.709141C6.90012 0.709141 6.20012 1.34914 6.20012 2.21914C6.20012 3.08914 6.90012 3.78914 7.78012 3.78914C8.60012 3.78914 9.30012 3.08914 9.30012 2.21914C9.30012 1.80914 9.13012 1.39914 8.89012 1.10914Z" fill="#4FB9BB" stroke="#4FB9BB" stroke-width="0.25" stroke-miterlimit="10"/>
</svg>
