<svg width="13" height="14" viewBox="0 0 13 14" fill="none" xmlns="http://www.w3.org/2000/svg">
<path d="M5.77963 0.0771975L4.66963 0.7672C4.36963 0.9572 4.32963 1.43717 4.58963 1.67717C5.19963 2.23717 5.37963 2.5472 5.46963 2.8972C5.51963 3.0872 5.52963 3.31718 5.52963 3.61718C3.85963 2.92718 2.38963 2.88718 1.33963 3.61718C0.0796342 4.49718 -0.300366 6.29721 0.259634 8.52721C0.649634 10.0772 1.26963 11.5772 2.28963 12.5872C3.25963 13.5572 4.67963 13.9872 6.26963 13.4372C7.85963 13.9872 9.27963 13.5572 10.2596 12.5872C11.2696 11.5772 11.8996 10.0772 12.2896 8.52721C12.8996 6.08721 12.5296 4.55718 11.2096 3.55718C9.88963 2.73718 8.26963 3.0672 7.05963 3.5772C7.07963 2.5072 7.09963 1.8472 6.63963 0.387195C6.38963 -0.012805 6.13963 -0.0728025 5.77963 0.0771975ZM10.5596 4.50719C11.6796 5.43719 11.4496 7.13717 11.1696 8.23717C10.7996 9.51717 10.2796 10.9072 9.43963 11.7772C8.66963 12.5472 7.80963 12.8472 6.47963 12.3172C6.34963 12.2672 6.18963 12.2672 6.05963 12.3172C4.71963 12.8472 3.86963 12.5472 3.09963 11.7772C2.32963 11.0072 1.72963 9.67718 1.36963 8.24718C0.869634 6.26718 1.23963 5.07718 1.98963 4.55718C2.73963 4.03718 4.11963 4.0472 5.99963 5.0772C6.16963 5.1672 6.38963 5.16719 6.55963 5.06719C7.69963 4.49719 9.35963 3.71719 10.5596 4.50719Z" fill="#4FB9BB"/>
</svg>
