<svg width="13" height="12" viewBox="0 0 13 12" fill="none" xmlns="http://www.w3.org/2000/svg">
<g clip-path="url(#clip0)">
<path d="M5.9375 3.91971C5.9375 3.61045 6.19053 3.35742 6.49978 3.35742C6.80904 3.35742 7.06207 3.61045 7.06207 3.91971V7.29341C7.06207 7.60266 6.80904 7.85569 6.49978 7.85569C6.19053 7.85569 5.9375 7.60266 5.9375 7.29341V3.91971Z" fill="#4FB9BB"/>
<path d="M6.49978 8.41797C6.19053 8.41797 5.9375 8.671 5.9375 8.98025C5.9375 9.28951 6.19053 9.54254 6.49978 9.54254C6.80904 9.54254 7.06207 9.28951 7.06207 8.98025C7.06207 8.671 6.80904 8.41797 6.49978 8.41797Z" fill="#4FB9BB"/>
<path fill-rule="evenodd" clip-rule="evenodd" d="M5.03212 0.847953C5.67875 -0.287859 7.315 -0.287859 7.96162 0.847953L12.7691 9.26534C13.4102 10.3899 12.6005 11.79 11.3072 11.79H1.68654C0.393284 11.79 -0.422027 10.3899 0.224599 9.26534L5.03212 0.847953ZM6.98887 1.40461C6.77521 1.02788 6.22979 1.02788 6.0105 1.40461L1.20297 9.822C0.989305 10.1987 1.2592 10.6654 1.69216 10.6654H11.3128C11.7458 10.6654 12.0157 10.1987 11.802 9.822L6.98887 1.40461Z" fill="#4FB9BB"/>
</g>
<defs>
<clipPath id="clip0">
<rect width="13" height="11.7911" fill="white"/>
</clipPath>
</defs>
</svg>
